<?xml version="1.0" encoding="UTF-8"?>
<svg xmlns="http://www.w3.org/2000/svg" xmlns:xlink="http://www.w3.org/1999/xlink" width="1280" height="720" viewBox="0 0 1280 720">
<defs>
<g>
<g id="glyph-0-0">
<path d="M 1.234375 -0.339844 L 1.894531 -1.964844 L 2.199219 -1.964844 L 2.199219 0 L 2 0 L 2 -1.707031 L 1.992188 -1.707031 L 1.28125 0 L 1.175781 0 L 0.464844 -1.707031 L 0.460938 -1.707031 L 0.460938 0 L 0.261719 0 L 0.261719 -1.964844 L 0.566406 -1.964844 Z "/>
</g>
<g id="glyph-0-1">
<path d="M 1.242188 -0.75 C 1.234375 -0.871094 1.195312 -0.972656 1.125 -1.054688 C 1.050781 -1.136719 0.945312 -1.175781 0.8125 -1.175781 C 0.75 -1.175781 0.691406 -1.164062 0.636719 -1.140625 C 0.582031 -1.117188 0.535156 -1.085938 0.496094 -1.046875 C 0.453125 -1.007812 0.421875 -0.960938 0.398438 -0.910156 C 0.375 -0.859375 0.359375 -0.804688 0.355469 -0.75 Z M 1.433594 -0.6875 C 1.433594 -0.675781 1.433594 -0.660156 1.433594 -0.648438 C 1.433594 -0.632812 1.433594 -0.617188 1.429688 -0.601562 L 0.351562 -0.601562 C 0.355469 -0.535156 0.367188 -0.472656 0.390625 -0.417969 C 0.414062 -0.359375 0.449219 -0.308594 0.492188 -0.265625 C 0.535156 -0.222656 0.585938 -0.191406 0.640625 -0.164062 C 0.699219 -0.140625 0.761719 -0.128906 0.828125 -0.128906 C 0.925781 -0.128906 1.011719 -0.152344 1.082031 -0.195312 C 1.152344 -0.242188 1.207031 -0.292969 1.246094 -0.351562 L 1.386719 -0.242188 C 1.308594 -0.144531 1.222656 -0.0742188 1.128906 -0.03125 C 1.035156 0.0117188 0.933594 0.0351562 0.828125 0.0351562 C 0.730469 0.0351562 0.640625 0.015625 0.558594 -0.0195312 C 0.476562 -0.0546875 0.40625 -0.101562 0.347656 -0.160156 C 0.289062 -0.222656 0.242188 -0.292969 0.207031 -0.378906 C 0.171875 -0.460938 0.15625 -0.550781 0.15625 -0.648438 C 0.15625 -0.746094 0.171875 -0.839844 0.207031 -0.921875 C 0.238281 -1.003906 0.285156 -1.078125 0.34375 -1.140625 C 0.402344 -1.199219 0.472656 -1.246094 0.550781 -1.28125 C 0.632812 -1.316406 0.71875 -1.332031 0.8125 -1.332031 C 0.914062 -1.332031 1.003906 -1.316406 1.082031 -1.28125 C 1.160156 -1.246094 1.222656 -1.203125 1.273438 -1.144531 C 1.328125 -1.085938 1.367188 -1.015625 1.394531 -0.9375 C 1.421875 -0.859375 1.433594 -0.777344 1.433594 -0.6875 Z "/>
</g>
<g id="glyph-0-2">
<path d="M 0.4375 -1.078125 C 0.472656 -1.152344 0.53125 -1.214844 0.605469 -1.261719 C 0.683594 -1.308594 0.769531 -1.332031 0.863281 -1.332031 C 0.898438 -1.332031 0.933594 -1.328125 0.972656 -1.320312 C 1.011719 -1.3125 1.046875 -1.300781 1.085938 -1.277344 C 1.121094 -1.257812 1.152344 -1.230469 1.183594 -1.195312 C 1.214844 -1.160156 1.242188 -1.113281 1.265625 -1.058594 C 1.308594 -1.148438 1.367188 -1.214844 1.445312 -1.261719 C 1.523438 -1.308594 1.613281 -1.332031 1.71875 -1.332031 C 1.882812 -1.332031 2.007812 -1.285156 2.089844 -1.1875 C 2.171875 -1.089844 2.214844 -0.957031 2.214844 -0.796875 L 2.214844 0 L 2.023438 0 L 2.023438 -0.71875 C 2.023438 -0.855469 2 -0.964844 1.949219 -1.050781 C 1.898438 -1.132812 1.8125 -1.175781 1.6875 -1.175781 C 1.621094 -1.175781 1.5625 -1.160156 1.515625 -1.132812 C 1.46875 -1.105469 1.429688 -1.070312 1.402344 -1.023438 C 1.371094 -0.976562 1.351562 -0.925781 1.339844 -0.871094 C 1.324219 -0.8125 1.320312 -0.753906 1.320312 -0.691406 L 1.320312 0 L 1.128906 0 L 1.128906 -0.757812 C 1.128906 -0.820312 1.125 -0.878906 1.117188 -0.929688 C 1.109375 -0.980469 1.089844 -1.027344 1.066406 -1.0625 C 1.042969 -1.097656 1.011719 -1.125 0.972656 -1.144531 C 0.929688 -1.164062 0.878906 -1.175781 0.816406 -1.175781 C 0.773438 -1.175781 0.726562 -1.164062 0.683594 -1.144531 C 0.636719 -1.125 0.597656 -1.09375 0.558594 -1.050781 C 0.523438 -1.007812 0.496094 -0.957031 0.472656 -0.894531 C 0.449219 -0.828125 0.4375 -0.753906 0.4375 -0.667969 L 0.4375 0 L 0.25 0 L 0.25 -1.015625 C 0.25 -1.050781 0.25 -1.09375 0.246094 -1.148438 C 0.246094 -1.203125 0.242188 -1.253906 0.238281 -1.300781 L 0.417969 -1.300781 C 0.421875 -1.265625 0.425781 -1.226562 0.425781 -1.183594 C 0.429688 -1.140625 0.429688 -1.105469 0.429688 -1.078125 Z "/>
</g>
<g id="glyph-0-3">
<path d="M 1.542969 -0.648438 C 1.542969 -0.550781 1.523438 -0.460938 1.488281 -0.378906 C 1.457031 -0.292969 1.40625 -0.222656 1.347656 -0.160156 C 1.285156 -0.101562 1.210938 -0.0507812 1.128906 -0.0195312 C 1.042969 0.015625 0.949219 0.0351562 0.847656 0.0351562 C 0.746094 0.0351562 0.65625 0.015625 0.570312 -0.0195312 C 0.484375 -0.0546875 0.410156 -0.101562 0.351562 -0.160156 C 0.289062 -0.222656 0.242188 -0.292969 0.207031 -0.378906 C 0.171875 -0.460938 0.15625 -0.550781 0.15625 -0.648438 C 0.15625 -0.746094 0.171875 -0.839844 0.207031 -0.921875 C 0.242188 -1.003906 0.289062 -1.078125 0.351562 -1.140625 C 0.410156 -1.199219 0.484375 -1.246094 0.570312 -1.28125 C 0.65625 -1.316406 0.746094 -1.332031 0.847656 -1.332031 C 0.949219 -1.332031 1.042969 -1.316406 1.128906 -1.28125 C 1.214844 -1.246094 1.285156 -1.199219 1.347656 -1.140625 C 1.410156 -1.078125 1.457031 -1.003906 1.488281 -0.921875 C 1.523438 -0.839844 1.542969 -0.746094 1.542969 -0.648438 Z M 1.339844 -0.648438 C 1.339844 -0.722656 1.328125 -0.789062 1.308594 -0.855469 C 1.285156 -0.917969 1.25 -0.972656 1.207031 -1.019531 C 1.164062 -1.066406 1.113281 -1.105469 1.050781 -1.132812 C 0.992188 -1.160156 0.921875 -1.175781 0.847656 -1.175781 C 0.769531 -1.175781 0.703125 -1.160156 0.644531 -1.132812 C 0.582031 -1.105469 0.53125 -1.066406 0.488281 -1.019531 C 0.445312 -0.972656 0.414062 -0.917969 0.390625 -0.855469 C 0.367188 -0.789062 0.355469 -0.722656 0.355469 -0.648438 C 0.355469 -0.578125 0.367188 -0.507812 0.390625 -0.445312 C 0.414062 -0.382812 0.445312 -0.328125 0.488281 -0.277344 C 0.53125 -0.230469 0.582031 -0.195312 0.644531 -0.167969 C 0.703125 -0.140625 0.769531 -0.128906 0.847656 -0.128906 C 0.921875 -0.128906 0.992188 -0.140625 1.050781 -0.167969 C 1.113281 -0.195312 1.164062 -0.230469 1.207031 -0.277344 C 1.25 -0.324219 1.285156 -0.382812 1.308594 -0.445312 C 1.332031 -0.507812 1.339844 -0.578125 1.339844 -0.648438 Z "/>
</g>
<g id="glyph-0-4">
<path d="M 0.25 -1.015625 C 0.25 -1.050781 0.25 -1.09375 0.246094 -1.148438 C 0.246094 -1.203125 0.242188 -1.253906 0.238281 -1.300781 L 0.417969 -1.300781 C 0.421875 -1.265625 0.425781 -1.226562 0.425781 -1.183594 C 0.429688 -1.140625 0.429688 -1.105469 0.429688 -1.078125 L 0.4375 -1.078125 C 0.472656 -1.152344 0.527344 -1.214844 0.601562 -1.261719 C 0.675781 -1.308594 0.761719 -1.332031 0.851562 -1.332031 C 0.875 -1.332031 0.898438 -1.332031 0.917969 -1.332031 C 0.9375 -1.328125 0.957031 -1.324219 0.976562 -1.320312 L 0.953125 -1.140625 C 0.941406 -1.144531 0.921875 -1.148438 0.898438 -1.152344 C 0.871094 -1.15625 0.84375 -1.15625 0.820312 -1.15625 C 0.769531 -1.15625 0.722656 -1.148438 0.675781 -1.128906 C 0.628906 -1.113281 0.589844 -1.082031 0.554688 -1.042969 C 0.519531 -1.003906 0.492188 -0.953125 0.472656 -0.890625 C 0.449219 -0.828125 0.4375 -0.753906 0.4375 -0.667969 L 0.4375 0 L 0.25 0 Z "/>
</g>
<g id="glyph-0-5">
<path d="M 0.695312 -0.203125 L 0.703125 -0.203125 L 1.105469 -1.300781 L 1.3125 -1.300781 L 0.664062 0.335938 C 0.625 0.4375 0.574219 0.515625 0.515625 0.578125 C 0.457031 0.636719 0.367188 0.667969 0.253906 0.667969 C 0.199219 0.667969 0.140625 0.660156 0.0859375 0.648438 L 0.105469 0.476562 C 0.148438 0.492188 0.195312 0.5 0.246094 0.5 C 0.308594 0.5 0.359375 0.480469 0.398438 0.441406 C 0.433594 0.402344 0.464844 0.34375 0.496094 0.269531 L 0.601562 -0.00390625 L 0.0429688 -1.300781 L 0.253906 -1.300781 Z "/>
</g>
<g id="glyph-0-6">
<path d="M 0.753906 -0.59375 L 0.132812 -0.59375 L 0.132812 -0.753906 L 0.753906 -0.753906 Z "/>
</g>
<g id="glyph-0-7">
<path d="M 0.460938 0 L 0.261719 0 L 0.261719 -1.964844 L 0.839844 -1.964844 C 0.933594 -1.964844 1.023438 -1.957031 1.105469 -1.9375 C 1.1875 -1.917969 1.261719 -1.890625 1.320312 -1.847656 C 1.378906 -1.804688 1.425781 -1.753906 1.460938 -1.6875 C 1.496094 -1.621094 1.511719 -1.539062 1.511719 -1.441406 C 1.511719 -1.371094 1.496094 -1.304688 1.472656 -1.246094 C 1.445312 -1.1875 1.410156 -1.132812 1.367188 -1.089844 C 1.320312 -1.046875 1.269531 -1.011719 1.207031 -0.984375 C 1.148438 -0.960938 1.082031 -0.945312 1.007812 -0.9375 L 1.582031 0 L 1.339844 0 L 0.792969 -0.917969 L 0.460938 -0.917969 Z M 0.460938 -1.089844 L 0.808594 -1.089844 C 0.96875 -1.089844 1.09375 -1.121094 1.179688 -1.179688 C 1.265625 -1.238281 1.3125 -1.324219 1.3125 -1.441406 C 1.3125 -1.507812 1.300781 -1.5625 1.273438 -1.605469 C 1.25 -1.648438 1.21875 -1.6875 1.175781 -1.714844 C 1.132812 -1.742188 1.082031 -1.761719 1.019531 -1.773438 C 0.957031 -1.789062 0.890625 -1.792969 0.816406 -1.792969 L 0.460938 -1.792969 Z "/>
</g>
<g id="glyph-0-8">
<path d="M 0.996094 0 L 0.792969 0 L 0.792969 -1.71875 L 0.4375 -1.417969 L 0.316406 -1.554688 L 0.816406 -1.964844 L 0.996094 -1.964844 Z "/>
</g>
</g>
</defs>
<g fill="rgb(100%, 41.960784%, 41.960784%)" fill-opacity="1">
<use xlink:href="#glyph-0-0" x="30" y="22.777344"/>
<use xlink:href="#glyph-0-1" x="32" y="22.777344"/>
<use xlink:href="#glyph-0-2" x="34" y="22.777344"/>
<use xlink:href="#glyph-0-3" x="36" y="22.777344"/>
<use xlink:href="#glyph-0-4" x="38" y="22.777344"/>
<use xlink:href="#glyph-0-5" x="39" y="22.777344"/>
<use xlink:href="#glyph-0-6" x="40" y="22.777344"/>
<use xlink:href="#glyph-0-7" x="41" y="22.777344"/>
<use xlink:href="#glyph-0-8" x="43" y="22.777344"/>
</g>
</svg>
