<?xml version="1.0" encoding="UTF-8"?>
<svg xmlns="http://www.w3.org/2000/svg" xmlns:xlink="http://www.w3.org/1999/xlink" width="1280" height="720" viewBox="0 0 1280 720">
<defs>
<g>
<g id="glyph-0-0">
<path d="M 2.722656 0 L 2.722656 -4.859375 L 1.9375 -4.859375 C 1.910156 -4.675781 1.851562 -4.519531 1.765625 -4.394531 C 1.675781 -4.269531 1.566406 -4.171875 1.441406 -4.09375 C 1.3125 -4.015625 1.171875 -3.964844 1.011719 -3.933594 C 0.851562 -3.902344 0.683594 -3.890625 0.515625 -3.894531 L 0.515625 -3.152344 L 1.734375 -3.152344 L 1.734375 0 Z "/>
</g>
<g id="glyph-0-1">
<path d="M 1.132812 -2.453125 C 1.132812 -2.535156 1.132812 -2.636719 1.136719 -2.753906 C 1.136719 -2.871094 1.144531 -2.992188 1.160156 -3.117188 C 1.171875 -3.242188 1.195312 -3.367188 1.230469 -3.488281 C 1.261719 -3.613281 1.308594 -3.722656 1.363281 -3.820312 C 1.421875 -3.917969 1.496094 -3.996094 1.585938 -4.054688 C 1.675781 -4.117188 1.789062 -4.144531 1.921875 -4.144531 C 2.058594 -4.144531 2.171875 -4.117188 2.265625 -4.054688 C 2.355469 -3.996094 2.433594 -3.917969 2.492188 -3.820312 C 2.554688 -3.722656 2.597656 -3.613281 2.628906 -3.488281 C 2.660156 -3.367188 2.683594 -3.242188 2.699219 -3.117188 C 2.714844 -2.992188 2.722656 -2.871094 2.726562 -2.753906 C 2.726562 -2.636719 2.730469 -2.535156 2.730469 -2.453125 C 2.730469 -2.3125 2.722656 -2.144531 2.714844 -1.949219 C 2.707031 -1.75 2.675781 -1.5625 2.628906 -1.378906 C 2.578125 -1.195312 2.5 -1.039062 2.390625 -0.910156 C 2.28125 -0.78125 2.128906 -0.714844 1.921875 -0.714844 C 1.722656 -0.714844 1.570312 -0.78125 1.464844 -0.910156 C 1.359375 -1.039062 1.28125 -1.195312 1.234375 -1.378906 C 1.183594 -1.5625 1.15625 -1.75 1.144531 -1.949219 C 1.136719 -2.144531 1.132812 -2.3125 1.132812 -2.453125 Z M 0.144531 -2.453125 C 0.144531 -1.964844 0.191406 -1.558594 0.289062 -1.234375 C 0.382812 -0.90625 0.511719 -0.644531 0.671875 -0.453125 C 0.835938 -0.257812 1.023438 -0.117188 1.238281 -0.0351562 C 1.453125 0.046875 1.683594 0.0898438 1.921875 0.0898438 C 2.167969 0.0898438 2.398438 0.046875 2.613281 -0.0351562 C 2.828125 -0.117188 3.019531 -0.257812 3.183594 -0.453125 C 3.347656 -0.644531 3.476562 -0.90625 3.574219 -1.234375 C 3.667969 -1.558594 3.714844 -1.964844 3.714844 -2.453125 C 3.714844 -2.925781 3.667969 -3.320312 3.574219 -3.640625 C 3.476562 -3.964844 3.347656 -4.222656 3.183594 -4.417969 C 3.019531 -4.613281 2.828125 -4.75 2.613281 -4.832031 C 2.398438 -4.917969 2.167969 -4.957031 1.921875 -4.957031 C 1.683594 -4.957031 1.453125 -4.917969 1.238281 -4.832031 C 1.023438 -4.75 0.835938 -4.609375 0.671875 -4.417969 C 0.511719 -4.222656 0.382812 -3.964844 0.289062 -3.640625 C 0.195312 -3.320312 0.144531 -2.921875 0.144531 -2.453125 Z "/>
</g>
<g id="glyph-0-2">
<path d="M 0.417969 -1.070312 L 0.417969 0 L 1.507812 0 L 1.507812 -1.070312 Z "/>
</g>
<g id="glyph-0-3">
<rect x="0" y="0" width="0" height="0" mask="url(#mask-0)"/>
</g>
<g id="glyph-0-4">
<path d="M 1.222656 -1.644531 L 0.167969 -1.644531 C 0.164062 -1.339844 0.21875 -1.078125 0.332031 -0.855469 C 0.449219 -0.632812 0.605469 -0.449219 0.800781 -0.304688 C 1 -0.160156 1.226562 -0.0585938 1.484375 0.0117188 C 1.738281 0.078125 2.003906 0.109375 2.277344 0.109375 C 2.617188 0.109375 2.914062 0.0703125 3.171875 -0.0078125 C 3.425781 -0.0859375 3.640625 -0.195312 3.816406 -0.335938 C 3.988281 -0.476562 4.121094 -0.644531 4.207031 -0.839844 C 4.296875 -1.035156 4.339844 -1.246094 4.339844 -1.472656 C 4.339844 -1.75 4.28125 -1.976562 4.164062 -2.15625 C 4.046875 -2.335938 3.90625 -2.476562 3.742188 -2.582031 C 3.582031 -2.6875 3.417969 -2.765625 3.253906 -2.816406 C 3.089844 -2.863281 2.960938 -2.898438 2.867188 -2.917969 C 2.558594 -2.996094 2.308594 -3.058594 2.113281 -3.109375 C 1.921875 -3.160156 1.773438 -3.214844 1.664062 -3.265625 C 1.554688 -3.316406 1.480469 -3.371094 1.445312 -3.429688 C 1.40625 -3.492188 1.390625 -3.570312 1.390625 -3.667969 C 1.390625 -3.773438 1.410156 -3.859375 1.457031 -3.929688 C 1.503906 -4 1.5625 -4.058594 1.636719 -4.105469 C 1.707031 -4.152344 1.785156 -4.183594 1.875 -4.203125 C 1.964844 -4.21875 2.050781 -4.230469 2.140625 -4.230469 C 2.273438 -4.230469 2.398438 -4.21875 2.511719 -4.195312 C 2.625 -4.171875 2.722656 -4.132812 2.8125 -4.078125 C 2.902344 -4.019531 2.972656 -3.945312 3.023438 -3.847656 C 3.078125 -3.75 3.109375 -3.628906 3.117188 -3.480469 L 4.171875 -3.480469 C 4.171875 -3.765625 4.121094 -4.011719 4.011719 -4.210938 C 3.902344 -4.414062 3.753906 -4.578125 3.570312 -4.707031 C 3.382812 -4.835938 3.171875 -4.929688 2.933594 -4.988281 C 2.695312 -5.046875 2.445312 -5.078125 2.1875 -5.078125 C 1.964844 -5.078125 1.742188 -5.046875 1.519531 -4.984375 C 1.296875 -4.925781 1.097656 -4.832031 0.921875 -4.707031 C 0.746094 -4.582031 0.605469 -4.425781 0.496094 -4.238281 C 0.386719 -4.050781 0.332031 -3.832031 0.332031 -3.578125 C 0.332031 -3.351562 0.375 -3.15625 0.460938 -2.996094 C 0.546875 -2.835938 0.660156 -2.703125 0.796875 -2.597656 C 0.9375 -2.492188 1.09375 -2.402344 1.269531 -2.335938 C 1.445312 -2.269531 1.628906 -2.214844 1.8125 -2.167969 C 1.992188 -2.117188 2.171875 -2.070312 2.347656 -2.027344 C 2.523438 -1.984375 2.679688 -1.9375 2.820312 -1.882812 C 2.957031 -1.828125 3.070312 -1.757812 3.15625 -1.671875 C 3.242188 -1.589844 3.285156 -1.480469 3.285156 -1.347656 C 3.285156 -1.222656 3.253906 -1.121094 3.1875 -1.039062 C 3.121094 -0.957031 3.042969 -0.894531 2.945312 -0.847656 C 2.847656 -0.800781 2.742188 -0.769531 2.632812 -0.753906 C 2.519531 -0.738281 2.417969 -0.730469 2.320312 -0.730469 C 2.175781 -0.730469 2.035156 -0.746094 1.902344 -0.78125 C 1.769531 -0.816406 1.652344 -0.871094 1.550781 -0.941406 C 1.453125 -1.011719 1.371094 -1.105469 1.3125 -1.222656 C 1.253906 -1.339844 1.222656 -1.480469 1.222656 -1.644531 Z "/>
</g>
<g id="glyph-0-5">
<path d="M 2.144531 0.445312 L 3.644531 -3.589844 L 2.625 -3.589844 L 1.839844 -1.132812 L 1.828125 -1.132812 L 1.015625 -3.589844 L -0.0351562 -3.589844 L 1.222656 -0.222656 C 1.25 -0.152344 1.265625 -0.078125 1.265625 0 C 1.265625 0.105469 1.234375 0.203125 1.171875 0.292969 C 1.109375 0.378906 1.011719 0.429688 0.882812 0.445312 C 0.785156 0.449219 0.6875 0.445312 0.589844 0.4375 C 0.492188 0.429688 0.398438 0.417969 0.304688 0.410156 L 0.304688 1.222656 C 0.40625 1.230469 0.507812 1.238281 0.609375 1.246094 C 0.707031 1.253906 0.808594 1.257812 0.910156 1.257812 C 1.246094 1.257812 1.511719 1.195312 1.703125 1.070312 C 1.890625 0.945312 2.039062 0.734375 2.144531 0.445312 Z "/>
</g>
<g id="glyph-0-6">
<path d="M 0.375 -3.589844 L 0.375 0 L 1.359375 0 L 1.359375 -1.882812 C 1.359375 -2.246094 1.421875 -2.511719 1.542969 -2.671875 C 1.664062 -2.832031 1.855469 -2.910156 2.125 -2.910156 C 2.359375 -2.910156 2.527344 -2.835938 2.617188 -2.691406 C 2.710938 -2.546875 2.757812 -2.324219 2.757812 -2.027344 L 2.757812 0 L 3.742188 0 L 3.742188 -2.207031 C 3.742188 -2.429688 3.722656 -2.632812 3.683594 -2.816406 C 3.644531 -3 3.578125 -3.152344 3.480469 -3.28125 C 3.382812 -3.410156 3.25 -3.507812 3.078125 -3.578125 C 2.910156 -3.652344 2.695312 -3.6875 2.429688 -3.6875 C 2.222656 -3.6875 2.019531 -3.640625 1.820312 -3.546875 C 1.621094 -3.449219 1.457031 -3.296875 1.332031 -3.089844 L 1.3125 -3.089844 L 1.3125 -3.589844 Z "/>
</g>
<g id="glyph-0-7">
<path d="M 1.625 -3.589844 L 1.625 -4.667969 L 0.640625 -4.667969 L 0.640625 -3.589844 L 0.0429688 -3.589844 L 0.0429688 -2.929688 L 0.640625 -2.929688 L 0.640625 -0.8125 C 0.640625 -0.632812 0.667969 -0.484375 0.730469 -0.375 C 0.789062 -0.265625 0.871094 -0.179688 0.976562 -0.117188 C 1.082031 -0.0585938 1.199219 -0.015625 1.335938 0.00390625 C 1.472656 0.0234375 1.617188 0.0351562 1.769531 0.0351562 C 1.867188 0.0351562 1.96875 0.03125 2.070312 0.0273438 C 2.171875 0.0234375 2.265625 0.015625 2.347656 0 L 2.347656 -0.765625 C 2.300781 -0.753906 2.253906 -0.746094 2.203125 -0.742188 C 2.152344 -0.738281 2.097656 -0.734375 2.042969 -0.734375 C 1.875 -0.734375 1.765625 -0.765625 1.707031 -0.820312 C 1.652344 -0.875 1.625 -0.984375 1.625 -1.152344 L 1.625 -2.929688 L 2.347656 -2.929688 L 2.347656 -3.589844 Z "/>
</g>
<g id="glyph-0-8">
<path d="M 0.375 -4.957031 L 0.375 0 L 1.359375 0 L 1.359375 -1.882812 C 1.359375 -2.246094 1.421875 -2.511719 1.542969 -2.671875 C 1.664062 -2.832031 1.855469 -2.910156 2.125 -2.910156 C 2.359375 -2.910156 2.527344 -2.835938 2.617188 -2.691406 C 2.710938 -2.546875 2.757812 -2.324219 2.757812 -2.027344 L 2.757812 0 L 3.742188 0 L 3.742188 -2.207031 C 3.742188 -2.429688 3.722656 -2.632812 3.683594 -2.816406 C 3.644531 -3 3.578125 -3.152344 3.480469 -3.28125 C 3.382812 -3.410156 3.25 -3.507812 3.078125 -3.578125 C 2.910156 -3.652344 2.695312 -3.6875 2.429688 -3.6875 C 2.246094 -3.6875 2.054688 -3.640625 1.859375 -3.546875 C 1.667969 -3.449219 1.507812 -3.296875 1.382812 -3.089844 L 1.359375 -3.089844 L 1.359375 -4.957031 Z "/>
</g>
<g id="glyph-0-9">
<path d="M 2.792969 -2.179688 L 1.1875 -2.179688 C 1.191406 -2.25 1.207031 -2.328125 1.234375 -2.417969 C 1.257812 -2.503906 1.300781 -2.589844 1.363281 -2.667969 C 1.425781 -2.746094 1.511719 -2.8125 1.613281 -2.863281 C 1.71875 -2.917969 1.847656 -2.945312 2.007812 -2.945312 C 2.246094 -2.945312 2.425781 -2.878906 2.546875 -2.75 C 2.664062 -2.621094 2.746094 -2.429688 2.792969 -2.179688 Z M 1.1875 -1.554688 L 3.777344 -1.554688 C 3.796875 -1.832031 3.773438 -2.097656 3.707031 -2.355469 C 3.644531 -2.609375 3.539062 -2.835938 3.390625 -3.035156 C 3.246094 -3.234375 3.058594 -3.390625 2.832031 -3.511719 C 2.605469 -3.628906 2.339844 -3.6875 2.035156 -3.6875 C 1.761719 -3.6875 1.511719 -3.640625 1.289062 -3.542969 C 1.0625 -3.445312 0.871094 -3.3125 0.707031 -3.140625 C 0.546875 -2.972656 0.421875 -2.773438 0.332031 -2.542969 C 0.246094 -2.3125 0.203125 -2.058594 0.203125 -1.792969 C 0.203125 -1.515625 0.246094 -1.257812 0.328125 -1.027344 C 0.414062 -0.796875 0.535156 -0.597656 0.695312 -0.429688 C 0.851562 -0.261719 1.042969 -0.136719 1.269531 -0.046875 C 1.496094 0.0429688 1.753906 0.0898438 2.035156 0.0898438 C 2.441406 0.0898438 2.789062 -0.00390625 3.078125 -0.1875 C 3.363281 -0.371094 3.578125 -0.679688 3.714844 -1.109375 L 2.847656 -1.109375 C 2.816406 -1 2.726562 -0.894531 2.582031 -0.796875 C 2.4375 -0.695312 2.269531 -0.644531 2.070312 -0.644531 C 1.792969 -0.644531 1.578125 -0.71875 1.429688 -0.859375 C 1.28125 -1.003906 1.203125 -1.234375 1.1875 -1.554688 Z "/>
</g>
<g id="glyph-0-10">
<path d="M 1.140625 -1.167969 L 0.203125 -1.167969 C 0.210938 -0.925781 0.265625 -0.726562 0.363281 -0.566406 C 0.464844 -0.40625 0.589844 -0.277344 0.746094 -0.179688 C 0.902344 -0.0820312 1.078125 -0.015625 1.277344 0.0273438 C 1.476562 0.0703125 1.679688 0.0898438 1.890625 0.0898438 C 2.09375 0.0898438 2.292969 0.0703125 2.488281 0.03125 C 2.6875 -0.0078125 2.859375 -0.078125 3.015625 -0.171875 C 3.167969 -0.269531 3.289062 -0.398438 3.386719 -0.558594 C 3.480469 -0.71875 3.527344 -0.917969 3.527344 -1.152344 C 3.527344 -1.320312 3.496094 -1.460938 3.429688 -1.574219 C 3.367188 -1.6875 3.28125 -1.78125 3.171875 -1.859375 C 3.066406 -1.933594 2.945312 -1.996094 2.808594 -2.042969 C 2.671875 -2.089844 2.53125 -2.128906 2.390625 -2.160156 C 2.25 -2.191406 2.113281 -2.222656 1.980469 -2.25 C 1.84375 -2.277344 1.726562 -2.308594 1.621094 -2.34375 C 1.515625 -2.378906 1.433594 -2.421875 1.367188 -2.480469 C 1.304688 -2.535156 1.269531 -2.605469 1.269531 -2.695312 C 1.269531 -2.769531 1.289062 -2.828125 1.328125 -2.871094 C 1.363281 -2.914062 1.410156 -2.949219 1.460938 -2.972656 C 1.515625 -2.996094 1.574219 -3.011719 1.640625 -3.015625 C 1.703125 -3.023438 1.765625 -3.027344 1.820312 -3.027344 C 1.996094 -3.027344 2.148438 -2.996094 2.277344 -2.925781 C 2.40625 -2.859375 2.480469 -2.730469 2.492188 -2.542969 L 3.429688 -2.542969 C 3.410156 -2.765625 3.355469 -2.949219 3.261719 -3.09375 C 3.164062 -3.238281 3.046875 -3.355469 2.902344 -3.445312 C 2.757812 -3.53125 2.597656 -3.59375 2.414062 -3.632812 C 2.230469 -3.667969 2.042969 -3.6875 1.847656 -3.6875 C 1.652344 -3.6875 1.464844 -3.671875 1.277344 -3.636719 C 1.09375 -3.601562 0.925781 -3.539062 0.777344 -3.453125 C 0.628906 -3.367188 0.511719 -3.253906 0.421875 -3.105469 C 0.332031 -2.957031 0.285156 -2.765625 0.285156 -2.535156 C 0.285156 -2.378906 0.316406 -2.246094 0.382812 -2.136719 C 0.445312 -2.027344 0.53125 -1.9375 0.640625 -1.863281 C 0.746094 -1.792969 0.867188 -1.734375 1.003906 -1.691406 C 1.140625 -1.648438 1.28125 -1.609375 1.421875 -1.578125 C 1.773438 -1.503906 2.050781 -1.429688 2.246094 -1.355469 C 2.441406 -1.28125 2.542969 -1.167969 2.542969 -1.019531 C 2.542969 -0.933594 2.519531 -0.859375 2.480469 -0.800781 C 2.4375 -0.742188 2.386719 -0.699219 2.324219 -0.664062 C 2.261719 -0.628906 2.191406 -0.601562 2.113281 -0.585938 C 2.039062 -0.570312 1.964844 -0.5625 1.894531 -0.5625 C 1.796875 -0.5625 1.703125 -0.574219 1.613281 -0.597656 C 1.523438 -0.621094 1.445312 -0.65625 1.375 -0.703125 C 1.304688 -0.753906 1.25 -0.816406 1.203125 -0.890625 C 1.160156 -0.96875 1.140625 -1.058594 1.140625 -1.167969 Z "/>
</g>
<g id="glyph-0-11">
<path d="M 1.390625 -4.144531 L 1.390625 -4.957031 L 0.402344 -4.957031 L 0.402344 -4.144531 Z M 0.402344 -3.589844 L 0.402344 0 L 1.390625 0 L 1.390625 -3.589844 Z "/>
</g>
<g id="glyph-0-12">
<path d="M 1.515625 -2.457031 L 1.515625 -3.527344 L 0.421875 -3.527344 L 0.421875 -2.457031 Z M 0.421875 -1.070312 L 0.421875 0 L 1.515625 0 L 1.515625 -1.070312 Z "/>
</g>
<g id="glyph-0-13">
<path d="M 0.402344 -4.957031 L 0.402344 0 L 1.390625 0 L 1.390625 -4.957031 Z "/>
</g>
<g id="glyph-0-14">
<path d="M 0.464844 -4.957031 L 0.464844 0 L 1.453125 0 L 1.453125 -1.234375 L 1.832031 -1.605469 L 2.820312 0 L 4.015625 0 L 2.507812 -2.269531 L 3.859375 -3.589844 L 2.695312 -3.589844 L 1.453125 -2.296875 L 1.453125 -4.957031 Z "/>
</g>
<g id="glyph-0-15">
<path d="M 4.480469 0 L 5.609375 -3.589844 L 4.597656 -3.589844 L 3.9375 -1.160156 L 3.921875 -1.160156 L 3.3125 -3.589844 L 2.355469 -3.589844 L 1.757812 -1.152344 L 1.742188 -1.152344 L 1.082031 -3.589844 L 0.0429688 -3.589844 L 1.179688 0 L 2.203125 0 L 2.8125 -2.410156 L 2.828125 -2.410156 L 3.464844 0 Z "/>
</g>
<g id="glyph-0-16">
<path d="M 2.046875 -0.847656 C 1.894531 -0.847656 1.769531 -0.878906 1.667969 -0.945312 C 1.566406 -1.007812 1.484375 -1.09375 1.421875 -1.195312 C 1.359375 -1.296875 1.3125 -1.410156 1.289062 -1.539062 C 1.261719 -1.664062 1.25 -1.792969 1.25 -1.921875 C 1.25 -2.058594 1.265625 -2.1875 1.296875 -2.308594 C 1.324219 -2.429688 1.375 -2.539062 1.441406 -2.636719 C 1.507812 -2.730469 1.589844 -2.804688 1.691406 -2.859375 C 1.789062 -2.917969 1.910156 -2.945312 2.046875 -2.945312 C 2.210938 -2.945312 2.34375 -2.914062 2.453125 -2.855469 C 2.558594 -2.792969 2.644531 -2.714844 2.707031 -2.609375 C 2.773438 -2.507812 2.820312 -2.390625 2.847656 -2.261719 C 2.875 -2.128906 2.890625 -1.988281 2.890625 -1.839844 C 2.890625 -1.710938 2.871094 -1.585938 2.835938 -1.46875 C 2.800781 -1.351562 2.75 -1.246094 2.679688 -1.152344 C 2.609375 -1.058594 2.523438 -0.984375 2.417969 -0.929688 C 2.3125 -0.875 2.1875 -0.847656 2.046875 -0.847656 Z M 3.828125 -0.230469 L 3.828125 -3.589844 L 2.890625 -3.589844 L 2.890625 -3.109375 L 2.875 -3.109375 C 2.753906 -3.320312 2.605469 -3.46875 2.425781 -3.554688 C 2.25 -3.644531 2.042969 -3.6875 1.804688 -3.6875 C 1.554688 -3.6875 1.335938 -3.640625 1.140625 -3.542969 C 0.949219 -3.445312 0.789062 -3.3125 0.660156 -3.148438 C 0.53125 -2.984375 0.433594 -2.796875 0.363281 -2.578125 C 0.296875 -2.363281 0.265625 -2.140625 0.265625 -1.910156 C 0.265625 -1.664062 0.292969 -1.433594 0.351562 -1.210938 C 0.410156 -0.992188 0.5 -0.800781 0.625 -0.636719 C 0.75 -0.472656 0.910156 -0.339844 1.105469 -0.246094 C 1.300781 -0.152344 1.53125 -0.105469 1.796875 -0.105469 C 2.015625 -0.105469 2.222656 -0.148438 2.421875 -0.238281 C 2.617188 -0.328125 2.769531 -0.46875 2.875 -0.660156 L 2.890625 -0.660156 L 2.890625 -0.1875 C 2.894531 0.0664062 2.832031 0.277344 2.703125 0.445312 C 2.578125 0.613281 2.375 0.695312 2.097656 0.695312 C 1.921875 0.695312 1.765625 0.660156 1.632812 0.585938 C 1.496094 0.515625 1.40625 0.386719 1.359375 0.203125 L 0.382812 0.203125 C 0.394531 0.40625 0.453125 0.578125 0.550781 0.726562 C 0.652344 0.871094 0.777344 0.992188 0.925781 1.082031 C 1.078125 1.175781 1.246094 1.246094 1.425781 1.289062 C 1.609375 1.332031 1.789062 1.355469 1.964844 1.355469 C 2.378906 1.355469 2.707031 1.296875 2.953125 1.1875 C 3.199219 1.078125 3.382812 0.941406 3.515625 0.78125 C 3.644531 0.621094 3.726562 0.449219 3.765625 0.265625 C 3.804688 0.078125 3.828125 -0.0859375 3.828125 -0.230469 Z "/>
</g>
<g id="glyph-0-17">
<path d="M 0.332031 -2.484375 C 0.347656 -2.71875 0.40625 -2.910156 0.507812 -3.0625 C 0.609375 -3.214844 0.738281 -3.339844 0.894531 -3.429688 C 1.054688 -3.523438 1.230469 -3.589844 1.425781 -3.628906 C 1.625 -3.667969 1.820312 -3.6875 2.019531 -3.6875 C 2.199219 -3.6875 2.382812 -3.675781 2.570312 -3.648438 C 2.753906 -3.625 2.921875 -3.574219 3.078125 -3.5 C 3.230469 -3.425781 3.355469 -3.324219 3.453125 -3.191406 C 3.550781 -3.058594 3.597656 -2.882812 3.597656 -2.667969 L 3.597656 -0.796875 C 3.597656 -0.636719 3.605469 -0.480469 3.625 -0.332031 C 3.644531 -0.183594 3.675781 -0.0742188 3.722656 0 L 2.722656 0 C 2.703125 -0.0546875 2.6875 -0.113281 2.675781 -0.171875 C 2.664062 -0.230469 2.65625 -0.285156 2.652344 -0.347656 C 2.496094 -0.183594 2.308594 -0.0703125 2.097656 -0.0078125 C 1.882812 0.0585938 1.667969 0.0898438 1.445312 0.0898438 C 1.273438 0.0898438 1.113281 0.0703125 0.964844 0.0273438 C 0.816406 -0.015625 0.6875 -0.078125 0.578125 -0.167969 C 0.464844 -0.253906 0.378906 -0.367188 0.316406 -0.5 C 0.253906 -0.632812 0.222656 -0.792969 0.222656 -0.980469 C 0.222656 -1.183594 0.257812 -1.351562 0.328125 -1.484375 C 0.402344 -1.613281 0.496094 -1.71875 0.609375 -1.796875 C 0.722656 -1.875 0.851562 -1.9375 0.996094 -1.976562 C 1.140625 -2.015625 1.289062 -2.046875 1.4375 -2.070312 C 1.585938 -2.09375 1.730469 -2.109375 1.875 -2.125 C 2.019531 -2.140625 2.144531 -2.160156 2.257812 -2.1875 C 2.367188 -2.214844 2.457031 -2.253906 2.519531 -2.308594 C 2.585938 -2.363281 2.617188 -2.441406 2.609375 -2.542969 C 2.609375 -2.648438 2.59375 -2.734375 2.558594 -2.796875 C 2.523438 -2.859375 2.476562 -2.90625 2.421875 -2.941406 C 2.363281 -2.976562 2.296875 -3 2.21875 -3.011719 C 2.140625 -3.023438 2.058594 -3.027344 1.972656 -3.027344 C 1.777344 -3.027344 1.625 -2.984375 1.515625 -2.902344 C 1.402344 -2.820312 1.339844 -2.679688 1.320312 -2.484375 Z M 2.609375 -1.757812 C 2.570312 -1.71875 2.515625 -1.691406 2.453125 -1.671875 C 2.390625 -1.648438 2.324219 -1.632812 2.253906 -1.617188 C 2.183594 -1.605469 2.105469 -1.59375 2.027344 -1.582031 C 1.949219 -1.574219 1.871094 -1.5625 1.792969 -1.546875 C 1.71875 -1.535156 1.644531 -1.515625 1.574219 -1.492188 C 1.5 -1.46875 1.4375 -1.4375 1.386719 -1.398438 C 1.332031 -1.359375 1.289062 -1.308594 1.257812 -1.25 C 1.226562 -1.191406 1.207031 -1.113281 1.207031 -1.019531 C 1.207031 -0.933594 1.222656 -0.859375 1.257812 -0.796875 C 1.289062 -0.738281 1.332031 -0.691406 1.390625 -0.65625 C 1.445312 -0.621094 1.507812 -0.597656 1.582031 -0.582031 C 1.65625 -0.570312 1.734375 -0.5625 1.8125 -0.5625 C 2.007812 -0.5625 2.15625 -0.59375 2.265625 -0.660156 C 2.371094 -0.726562 2.449219 -0.800781 2.5 -0.890625 C 2.550781 -0.980469 2.582031 -1.074219 2.59375 -1.167969 C 2.605469 -1.257812 2.609375 -1.332031 2.609375 -1.390625 Z "/>
</g>
<g id="glyph-0-18">
<path d="M 2.820312 -2.328125 L 3.785156 -2.328125 C 3.769531 -2.558594 3.714844 -2.757812 3.617188 -2.925781 C 3.519531 -3.09375 3.394531 -3.238281 3.238281 -3.351562 C 3.085938 -3.464844 2.910156 -3.546875 2.710938 -3.605469 C 2.515625 -3.660156 2.308594 -3.6875 2.097656 -3.6875 C 1.804688 -3.6875 1.546875 -3.640625 1.320312 -3.542969 C 1.09375 -3.445312 0.902344 -3.308594 0.742188 -3.136719 C 0.585938 -2.960938 0.464844 -2.753906 0.386719 -2.515625 C 0.304688 -2.277344 0.265625 -2.019531 0.265625 -1.742188 C 0.265625 -1.472656 0.308594 -1.226562 0.394531 -1.003906 C 0.484375 -0.777344 0.605469 -0.585938 0.765625 -0.421875 C 0.921875 -0.261719 1.113281 -0.136719 1.335938 -0.046875 C 1.5625 0.0429688 1.808594 0.0898438 2.078125 0.0898438 C 2.554688 0.0898438 2.945312 -0.0351562 3.25 -0.285156 C 3.554688 -0.535156 3.742188 -0.898438 3.804688 -1.375 L 2.855469 -1.375 C 2.820312 -1.152344 2.742188 -0.976562 2.613281 -0.84375 C 2.488281 -0.710938 2.304688 -0.644531 2.070312 -0.644531 C 1.917969 -0.644531 1.785156 -0.679688 1.679688 -0.75 C 1.574219 -0.820312 1.488281 -0.910156 1.425781 -1.015625 C 1.363281 -1.125 1.320312 -1.246094 1.292969 -1.382812 C 1.265625 -1.515625 1.25 -1.648438 1.25 -1.777344 C 1.25 -1.910156 1.265625 -2.046875 1.292969 -2.183594 C 1.320312 -2.320312 1.367188 -2.445312 1.433594 -2.558594 C 1.5 -2.671875 1.589844 -2.765625 1.695312 -2.835938 C 1.800781 -2.910156 1.933594 -2.945312 2.089844 -2.945312 C 2.511719 -2.945312 2.753906 -2.738281 2.820312 -2.328125 Z "/>
</g>
</g>
<image id="source-383" x="0" y="0" width="0" height="0"/>
<mask id="mask-0">
<use xlink:href="#source-383"/>
</mask>
</defs>
<g fill="rgb(93.333333%, 95.686275%, 97.254902%)" fill-opacity="1">
<use xlink:href="#glyph-0-0" x="30" y="26.770508"/>
<use xlink:href="#glyph-0-1" x="34" y="26.770508"/>
<use xlink:href="#glyph-0-2" x="38" y="26.770508"/>
<use xlink:href="#glyph-0-3" x="40" y="26.770508"/>
<use xlink:href="#glyph-0-4" x="42" y="26.770508"/>
<use xlink:href="#glyph-0-5" x="47" y="26.770508"/>
<use xlink:href="#glyph-0-6" x="51" y="26.770508"/>
<use xlink:href="#glyph-0-7" x="55" y="26.770508"/>
<use xlink:href="#glyph-0-8" x="57" y="26.770508"/>
<use xlink:href="#glyph-0-9" x="61" y="26.770508"/>
<use xlink:href="#glyph-0-10" x="65" y="26.770508"/>
<use xlink:href="#glyph-0-11" x="69" y="26.770508"/>
<use xlink:href="#glyph-0-10" x="71" y="26.770508"/>
<use xlink:href="#glyph-0-12" x="75" y="26.770508"/>
<use xlink:href="#glyph-0-3" x="77" y="26.770508"/>
<use xlink:href="#glyph-0-7" x="79" y="26.770508"/>
<use xlink:href="#glyph-0-8" x="81" y="26.770508"/>
<use xlink:href="#glyph-0-9" x="85" y="26.770508"/>
<use xlink:href="#glyph-0-3" x="89" y="26.770508"/>
<use xlink:href="#glyph-0-13" x="91" y="26.770508"/>
<use xlink:href="#glyph-0-11" x="93" y="26.770508"/>
<use xlink:href="#glyph-0-14" x="95" y="26.770508"/>
<use xlink:href="#glyph-0-9" x="99" y="26.770508"/>
<use xlink:href="#glyph-0-13" x="103" y="26.770508"/>
<use xlink:href="#glyph-0-5" x="105" y="26.770508"/>
<use xlink:href="#glyph-0-3" x="109" y="26.770508"/>
<use xlink:href="#glyph-0-15" x="111" y="26.770508"/>
<use xlink:href="#glyph-0-11" x="117" y="26.770508"/>
<use xlink:href="#glyph-0-6" x="119" y="26.770508"/>
<use xlink:href="#glyph-0-6" x="123" y="26.770508"/>
<use xlink:href="#glyph-0-11" x="127" y="26.770508"/>
<use xlink:href="#glyph-0-6" x="129" y="26.770508"/>
<use xlink:href="#glyph-0-16" x="133" y="26.770508"/>
<use xlink:href="#glyph-0-3" x="137" y="26.770508"/>
<use xlink:href="#glyph-0-10" x="139" y="26.770508"/>
<use xlink:href="#glyph-0-7" x="143" y="26.770508"/>
<use xlink:href="#glyph-0-17" x="145" y="26.770508"/>
<use xlink:href="#glyph-0-18" x="149" y="26.770508"/>
<use xlink:href="#glyph-0-14" x="153" y="26.770508"/>
</g>
</svg>
