<?xml version="1.0" encoding="UTF-8"?>
<svg xmlns="http://www.w3.org/2000/svg" xmlns:xlink="http://www.w3.org/1999/xlink" width="1280" height="720" viewBox="0 0 1280 720">
<defs>
<g>
<g id="glyph-0-0">
<path d="M 0.71875 0 L 0.0117188 -2.304688 L 0.417969 -2.304688 L 0.785156 -0.972656 L 0.921875 -0.480469 C 0.925781 -0.503906 0.964844 -0.664062 1.039062 -0.953125 L 1.40625 -2.304688 L 1.808594 -2.304688 L 2.152344 -0.96875 L 2.269531 -0.527344 L 2.398438 -0.972656 L 2.796875 -2.304688 L 3.175781 -2.304688 L 2.453125 0 L 2.046875 0 L 1.683594 -1.378906 L 1.59375 -1.773438 L 1.125 0 Z "/>
</g>
<g id="glyph-0-1">
<path d="M 0.296875 -2.730469 L 0.296875 -3.179688 L 0.6875 -3.179688 L 0.6875 -2.730469 Z M 0.296875 0 L 0.296875 -2.304688 L 0.6875 -2.304688 L 0.6875 0 Z "/>
</g>
<g id="glyph-0-2">
<path d="M 0.285156 0 L 0.285156 -3.179688 L 0.675781 -3.179688 L 0.675781 0 Z "/>
</g>
</g>
</defs>
<g fill="rgb(93.333333%, 95.686275%, 97.254902%)" fill-opacity="1">
<use xlink:href="#glyph-0-0" x="30" y="24.023438"/>
<use xlink:href="#glyph-0-1" x="33" y="24.023438"/>
<use xlink:href="#glyph-0-2" x="34" y="24.023438"/>
<use xlink:href="#glyph-0-2" x="35" y="24.023438"/>
</g>
</svg>
