<?xml version="1.0" encoding="UTF-8"?>
<svg xmlns="http://www.w3.org/2000/svg" xmlns:xlink="http://www.w3.org/1999/xlink" width="1280" height="720" viewBox="0 0 1280 720">
<defs>
<g>
<g id="glyph-0-0">
<path d="M 0.078125 -3.457031 L 0.585938 -3.457031 L 0.585938 -3.71875 C 0.585938 -4.007812 0.617188 -4.226562 0.679688 -4.367188 C 0.742188 -4.511719 0.855469 -4.628906 1.019531 -4.71875 C 1.1875 -4.808594 1.398438 -4.855469 1.652344 -4.855469 C 1.910156 -4.855469 2.164062 -4.816406 2.414062 -4.738281 L 2.292969 -4.097656 C 2.148438 -4.132812 2.007812 -4.152344 1.871094 -4.152344 C 1.738281 -4.152344 1.644531 -4.121094 1.585938 -4.058594 C 1.527344 -3.996094 1.5 -3.878906 1.5 -3.703125 L 1.5 -3.457031 L 2.183594 -3.457031 L 2.183594 -2.738281 L 1.5 -2.738281 L 1.5 0 L 0.585938 0 L 0.585938 -2.738281 L 0.078125 -2.738281 Z "/>
</g>
<g id="glyph-0-1">
<path d="M 1.164062 -2.402344 L 0.332031 -2.550781 C 0.425781 -2.886719 0.585938 -3.132812 0.8125 -3.292969 C 1.042969 -3.453125 1.378906 -3.535156 1.828125 -3.535156 C 2.238281 -3.535156 2.542969 -3.488281 2.742188 -3.390625 C 2.941406 -3.292969 3.082031 -3.171875 3.164062 -3.023438 C 3.246094 -2.875 3.285156 -2.601562 3.285156 -2.203125 L 3.273438 -1.136719 C 3.273438 -0.832031 3.289062 -0.609375 3.320312 -0.464844 C 3.347656 -0.320312 3.402344 -0.164062 3.484375 0 L 2.578125 0 C 2.554688 -0.0625 2.523438 -0.152344 2.492188 -0.269531 C 2.476562 -0.324219 2.464844 -0.359375 2.457031 -0.378906 C 2.300781 -0.226562 2.132812 -0.113281 1.957031 -0.0351562 C 1.777344 0.0390625 1.589844 0.078125 1.386719 0.078125 C 1.03125 0.078125 0.75 -0.0195312 0.546875 -0.210938 C 0.339844 -0.40625 0.238281 -0.648438 0.238281 -0.945312 C 0.238281 -1.140625 0.285156 -1.3125 0.378906 -1.464844 C 0.472656 -1.617188 0.601562 -1.738281 0.769531 -1.816406 C 0.9375 -1.898438 1.179688 -1.96875 1.496094 -2.03125 C 1.925781 -2.113281 2.222656 -2.1875 2.386719 -2.257812 L 2.386719 -2.347656 C 2.386719 -2.523438 2.34375 -2.648438 2.257812 -2.722656 C 2.167969 -2.796875 2.003906 -2.835938 1.765625 -2.835938 C 1.601562 -2.835938 1.476562 -2.804688 1.382812 -2.738281 C 1.292969 -2.675781 1.21875 -2.5625 1.164062 -2.402344 Z M 2.386719 -1.660156 C 2.269531 -1.621094 2.082031 -1.574219 1.828125 -1.519531 C 1.574219 -1.464844 1.410156 -1.414062 1.332031 -1.359375 C 1.210938 -1.277344 1.152344 -1.167969 1.152344 -1.039062 C 1.152344 -0.910156 1.199219 -0.800781 1.296875 -0.707031 C 1.390625 -0.613281 1.511719 -0.566406 1.660156 -0.566406 C 1.824219 -0.566406 1.984375 -0.621094 2.132812 -0.730469 C 2.242188 -0.8125 2.316406 -0.914062 2.351562 -1.03125 C 2.375 -1.109375 2.386719 -1.257812 2.386719 -1.476562 Z "/>
</g>
<g id="glyph-0-2">
<path d="M 3.492188 -2.433594 L 2.589844 -2.273438 C 2.558594 -2.453125 2.492188 -2.589844 2.382812 -2.679688 C 2.277344 -2.769531 2.136719 -2.816406 1.964844 -2.816406 C 1.738281 -2.816406 1.554688 -2.738281 1.421875 -2.578125 C 1.285156 -2.421875 1.21875 -2.160156 1.21875 -1.789062 C 1.21875 -1.378906 1.285156 -1.089844 1.425781 -0.921875 C 1.5625 -0.753906 1.746094 -0.667969 1.980469 -0.667969 C 2.152344 -0.667969 2.296875 -0.714844 2.40625 -0.816406 C 2.515625 -0.914062 2.59375 -1.085938 2.640625 -1.324219 L 3.539062 -1.171875 C 3.445312 -0.757812 3.265625 -0.449219 3 -0.238281 C 2.734375 -0.0273438 2.382812 0.078125 1.9375 0.078125 C 1.429688 0.078125 1.027344 -0.0820312 0.726562 -0.402344 C 0.425781 -0.71875 0.277344 -1.160156 0.277344 -1.726562 C 0.277344 -2.296875 0.425781 -2.742188 0.730469 -3.058594 C 1.03125 -3.375 1.4375 -3.535156 1.953125 -3.535156 C 2.375 -3.535156 2.710938 -3.445312 2.957031 -3.261719 C 3.207031 -3.082031 3.382812 -2.804688 3.492188 -2.433594 Z "/>
</g>
<g id="glyph-0-3">
<path d="M 2.0625 -3.457031 L 2.0625 -2.726562 L 1.4375 -2.726562 L 1.4375 -1.335938 C 1.4375 -1.054688 1.445312 -0.886719 1.457031 -0.839844 C 1.46875 -0.792969 1.496094 -0.757812 1.539062 -0.726562 C 1.582031 -0.695312 1.632812 -0.679688 1.691406 -0.679688 C 1.777344 -0.679688 1.898438 -0.710938 2.0625 -0.769531 L 2.140625 -0.0585938 C 1.925781 0.03125 1.683594 0.078125 1.417969 0.078125 C 1.25 0.078125 1.101562 0.0507812 0.96875 -0.00390625 C 0.835938 -0.0585938 0.742188 -0.132812 0.679688 -0.21875 C 0.617188 -0.308594 0.574219 -0.425781 0.550781 -0.578125 C 0.53125 -0.683594 0.519531 -0.898438 0.519531 -1.222656 L 0.519531 -2.726562 L 0.101562 -2.726562 L 0.101562 -3.457031 L 0.519531 -3.457031 L 0.519531 -4.144531 L 1.4375 -4.679688 L 1.4375 -3.457031 Z "/>
</g>
</g>
</defs>
<g fill="rgb(93.333333%, 95.686275%, 97.254902%)" fill-opacity="1">
<use xlink:href="#glyph-0-0" x="30" y="26.035156"/>
<use xlink:href="#glyph-0-1" x="32" y="26.035156"/>
<use xlink:href="#glyph-0-2" x="36" y="26.035156"/>
<use xlink:href="#glyph-0-3" x="40" y="26.035156"/>
</g>
</svg>
